<svg xmlns="http://www.w3.org/2000/svg" xmlns:xlink="http://www.w3.org/1999/xlink" width="100" zoomAndPan="magnify" viewBox="0 0 75 74.999997" height="100" preserveAspectRatio="xMidYMid meet" version="1.2"><defs><clipPath id="e02296e0ba"><path d="M 30 0 L 45 0 C 61.570312 0 75 13.429688 75 30 L 75 45 C 75 61.570312 61.570312 75 45 75 L 30 75 C 13.429688 75 0 61.570312 0 45 L 0 30 C 0 13.429688 13.429688 0 30 0 Z M 30 0 "/></clipPath><clipPath id="829e7d6171"><path d="M 15 34 L 39 34 L 39 57.589844 L 15 57.589844 Z M 15 34 "/></clipPath><clipPath id="d05553a25e"><path d="M 15 34 L 40 34 L 40 57.589844 L 15 57.589844 Z M 15 34 "/></clipPath><clipPath id="419d74abab"><path d="M 8.140625 45 L 21 45 L 21 57.589844 L 8.140625 57.589844 Z M 8.140625 45 "/></clipPath><clipPath id="2a166174cb"><path d="M 31 41 L 49 41 L 49 57.589844 L 31 57.589844 Z M 31 41 "/></clipPath><clipPath id="dbc335bc88"><path d="M 44 41 L 61 41 L 61 57.589844 L 44 57.589844 Z M 44 41 "/></clipPath><clipPath id="34881fcc17"><path d="M 13 52 L 54 52 L 54 57.589844 L 13 57.589844 Z M 13 52 "/></clipPath><clipPath id="cd7aaed207"><path d="M 42 14.089844 L 45 14.089844 L 45 21 L 42 21 Z M 42 14.089844 "/></clipPath><clipPath id="60dc63513b"><path d="M 60 36 L 66.640625 36 L 66.640625 39 L 60 39 Z M 60 36 "/></clipPath><clipPath id="7e10ccc7e9"><path d="M 60 35 L 66.640625 35 L 66.640625 39 L 60 39 Z M 60 35 "/></clipPath></defs><g id="aeef507c21"><rect x="0" width="75" y="0" height="74.999997" style="fill:#ffffff;fill-opacity:1;stroke:none;"/><rect x="0" width="75" y="0" height="74.999997" style="fill:#004aad;fill-opacity:1;stroke:none;"/><g clip-rule="nonzero" clip-path="url(#e02296e0ba)"><rect x="0" width="75" y="0" height="74.999997" style="fill:#004aad;fill-opacity:1;stroke:none;"/></g><path style="fill-rule:nonzero;fill:#ffc100;fill-opacity:1;stroke-width:2.795;stroke-linecap:butt;stroke-linejoin:miter;stroke:#ffc100;stroke-opacity:1;stroke-miterlimit:4;" d="M 7622.815828 3613.247282 C 7622.815828 3747.097086 7609.90979 3879.713251 7584.097713 4011.095777 C 7557.671062 4141.861484 7518.952947 4269.543094 7467.943366 4393.523788 C 7416.319212 4516.887662 7353.632739 4634.700162 7279.269375 4745.727649 C 7204.90601 4857.371956 7120.709473 4960.380791 7026.065191 5054.754155 C 6931.420908 5149.744338 6828.1726 5234.248592 6716.93484 5308.266917 C 6605.69708 5382.902061 6487.699013 5445.817637 6364.169788 5497.013644 C 6240.640562 5548.209652 6112.809323 5586.452453 5981.905219 5612.975686 C 5850.38654 5638.8821 5717.638716 5651.835307 5584.276318 5651.835307 C 5450.299347 5651.835307 5317.551522 5638.8821 5186.032844 5612.975686 C 5055.128739 5586.452453 4927.297501 5548.209652 4803.768275 5497.013644 C 4680.23905 5445.817637 4562.240983 5382.902061 4451.003223 5308.266917 C 4339.765462 5234.248592 4237.131728 5149.744338 4142.487445 5054.754155 C 4047.843163 4960.380791 3963.032053 4857.371956 3888.668688 4745.727649 C 3814.305323 4634.700162 3751.618851 4516.887662 3699.994697 4393.523788 C 3648.985116 4269.543094 3610.267 4141.861484 3584.454923 4011.095777 C 3558.028273 3879.713251 3545.122235 3747.097086 3545.122235 3613.247282 C 3545.122235 3479.397478 3558.028273 3346.781313 3584.454923 3215.398787 C 3610.267 3084.016261 3648.985116 2956.334651 3699.994697 2832.970776 C 3751.618851 2708.990083 3814.305323 2591.794402 3888.668688 2480.150095 C 3963.032053 2369.122608 4047.843163 2266.113773 4142.487445 2171.12359 C 4237.131728 2076.750226 4339.765462 1992.245972 4451.003223 1917.610828 C 4562.240983 1842.975684 4680.23905 1780.676927 4803.768275 1729.48092 C 4927.297501 1677.668092 5055.128739 1639.425291 5186.032844 1612.902058 C 5317.551522 1586.995645 5450.299347 1574.042438 5584.276318 1574.042438 C 5717.638716 1574.042438 5850.38654 1586.995645 5981.905219 1612.902058 C 6112.809323 1639.425291 6240.640562 1677.668092 6364.169788 1729.48092 C 6487.699013 1780.676927 6605.69708 1842.975684 6716.93484 1917.610828 C 6828.1726 1992.245972 6931.420908 2076.750226 7026.065191 2171.12359 C 7120.709473 2266.113773 7204.90601 2369.122608 7279.269375 2480.150095 C 7353.632739 2591.794402 7416.319212 2708.990083 7467.943366 2832.970776 C 7518.952947 2956.334651 7557.671062 3084.016261 7584.097713 3215.398787 C 7609.90979 3346.781313 7622.815828 3479.397478 7622.815828 3613.247282 Z M 7622.815828 3613.247282 " transform="matrix(0.00635604,0,0,0.00633289,8.162387,14.086448)"/><g clip-rule="nonzero" clip-path="url(#829e7d6171)"><path style=" stroke:none;fill-rule:nonzero;fill:#e6e6e6;fill-opacity:1;" d="M 38.945312 45.832031 C 38.945312 46.601562 38.871094 47.363281 38.71875 48.121094 C 38.566406 48.875 38.34375 49.609375 38.050781 50.320312 C 37.753906 51.03125 37.390625 51.707031 36.960938 52.347656 C 36.53125 52.984375 36.046875 53.578125 35.5 54.121094 C 34.953125 54.667969 34.359375 55.152344 33.714844 55.578125 C 33.074219 56.007812 32.394531 56.367188 31.683594 56.664062 C 30.96875 56.957031 30.234375 57.179688 29.476562 57.332031 C 28.71875 57.480469 27.953125 57.554688 27.179688 57.554688 C 26.40625 57.554688 25.640625 57.480469 24.882812 57.332031 C 24.125 57.179688 23.390625 56.957031 22.675781 56.664062 C 21.964844 56.367188 21.285156 56.007812 20.644531 55.578125 C 20 55.152344 19.40625 54.667969 18.859375 54.121094 C 18.3125 53.578125 17.828125 52.984375 17.398438 52.347656 C 16.96875 51.707031 16.605469 51.03125 16.308594 50.320312 C 16.015625 49.609375 15.792969 48.875 15.640625 48.121094 C 15.488281 47.363281 15.414062 46.601562 15.414062 45.832031 C 15.414062 45.0625 15.488281 44.300781 15.640625 43.546875 C 15.792969 42.792969 16.015625 42.058594 16.308594 41.347656 C 16.605469 40.636719 16.96875 39.960938 17.398438 39.320312 C 17.828125 38.679688 18.3125 38.089844 18.859375 37.542969 C 19.40625 37 20 36.515625 20.644531 36.085938 C 21.285156 35.660156 21.964844 35.296875 22.675781 35.003906 C 23.390625 34.707031 24.125 34.488281 24.882812 34.335938 C 25.640625 34.1875 26.40625 34.109375 27.179688 34.109375 C 27.953125 34.109375 28.71875 34.1875 29.476562 34.335938 C 30.234375 34.488281 30.96875 34.707031 31.683594 35.003906 C 32.394531 35.296875 33.074219 35.660156 33.714844 36.085938 C 34.359375 36.515625 34.953125 37 35.5 37.542969 C 36.046875 38.089844 36.53125 38.679688 36.960938 39.320312 C 37.390625 39.960938 37.753906 40.636719 38.050781 41.347656 C 38.34375 42.058594 38.566406 42.792969 38.71875 43.546875 C 38.871094 44.300781 38.945312 45.0625 38.945312 45.832031 Z M 38.945312 45.832031 "/></g><g clip-rule="nonzero" clip-path="url(#d05553a25e)"><path style="fill:none;stroke-width:2.795;stroke-linecap:butt;stroke-linejoin:miter;stroke:#e6e6e6;stroke-opacity:1;stroke-miterlimit:4;" d="M 4843.100964 5012.810437 C 4843.100964 5134.323854 4831.424072 5254.603631 4807.455715 5374.266589 C 4783.487358 5493.312728 4748.456682 5609.27477 4702.363687 5721.535896 C 4655.656119 5833.797022 4598.500806 5940.506773 4530.897747 6041.66515 C 4463.294688 6142.206708 4387.087604 6235.963252 4301.047347 6321.701145 C 4215.00709 6408.055857 4121.591954 6484.541459 4020.187366 6551.774771 C 3919.397351 6619.624902 3812.461604 6676.372284 3700.60927 6723.250556 C 3588.142363 6769.512009 3472.60259 6804.670713 3353.375377 6828.726669 C 3234.148164 6852.165805 3113.691805 6863.885373 2992.006299 6863.885373 C 2870.320793 6863.885373 2749.864433 6852.165805 2630.637221 6828.726669 C 2511.410008 6804.670713 2395.870235 6769.512009 2283.403328 6723.250556 C 2171.550994 6676.372284 2064.615246 6619.624902 1963.825231 6551.774771 C 1862.420643 6484.541459 1769.005507 6408.055857 1682.965251 6321.701145 C 1596.924994 6235.963252 1520.717909 6142.206708 1453.114851 6041.66515 C 1385.511792 5940.506773 1328.356478 5833.797022 1281.64891 5721.535896 C 1235.555916 5609.27477 1200.52524 5493.312728 1176.556883 5374.266589 C 1152.588525 5254.603631 1140.911633 5134.323854 1140.911633 5012.810437 C 1140.911633 4891.297021 1152.588525 4771.017243 1176.556883 4651.971105 C 1200.52524 4532.924966 1235.555916 4416.962924 1281.64891 4304.701798 C 1328.356478 4192.440672 1385.511792 4085.730921 1453.114851 3984.572544 C 1520.717909 3883.414167 1596.924994 3790.274442 1682.965251 3703.91973 C 1769.005507 3618.181837 1862.420643 3541.696235 1963.825231 3473.846104 C 2064.615246 3406.612792 2171.550994 3349.248591 2283.403328 3302.987138 C 2395.870235 3256.108866 2511.410008 3221.566981 2630.637221 3197.511025 C 2749.864433 3174.071889 2870.320793 3161.735502 2992.006299 3161.735502 C 3113.691805 3161.735502 3234.148164 3174.071889 3353.375377 3197.511025 C 3472.60259 3221.566981 3588.142363 3256.108866 3700.60927 3302.987138 C 3812.461604 3349.248591 3919.397351 3406.612792 4020.187366 3473.846104 C 4121.591954 3541.696235 4215.00709 3618.181837 4301.047347 3703.91973 C 4387.087604 3790.274442 4463.294688 3883.414167 4530.897747 3984.572544 C 4598.500806 4085.730921 4655.656119 4192.440672 4702.363687 4304.701798 C 4748.456682 4416.962924 4783.487358 4532.924966 4807.455715 4651.971105 C 4831.424072 4771.017243 4843.100964 4891.297021 4843.100964 5012.810437 Z M 4843.100964 5012.810437 " transform="matrix(0.00635604,0,0,0.00633289,8.162387,14.086448)"/></g><g clip-rule="nonzero" clip-path="url(#419d74abab)"><path style="fill-rule:nonzero;fill:#e6e6e6;fill-opacity:1;stroke-width:2.795;stroke-linecap:butt;stroke-linejoin:miter;stroke:#e6e6e6;stroke-opacity:1;stroke-miterlimit:4;" d="M 1960.752365 5883.759391 C 1960.752365 5948.525425 1954.606632 6012.05782 1942.315167 6074.973396 C 1929.409129 6138.505791 1910.971931 6199.570909 1886.389 6258.785569 C 1861.80607 6318.617048 1831.69198 6374.747611 1796.046731 6428.410896 C 1759.786908 6482.074182 1719.225073 6531.419731 1673.746652 6577.064365 C 1628.26823 6622.708999 1579.102369 6662.802258 1525.634495 6698.577781 C 1472.166622 6734.353305 1415.625882 6764.577454 1356.012275 6789.250229 C 1296.398669 6813.923004 1235.555916 6832.427585 1172.25487 6845.380792 C 1108.953824 6857.717179 1045.652778 6863.885373 981.122585 6863.885373 C 916.592393 6863.885373 852.676774 6857.717179 789.990301 6845.380792 C 726.689255 6832.427585 665.231929 6813.923004 606.232895 6789.250229 C 546.619289 6764.577454 490.078549 6734.353305 436.610675 6698.577781 C 383.142801 6662.802258 333.362367 6622.708999 287.883946 6577.064365 C 242.405524 6531.419731 201.843689 6482.074182 166.19844 6428.410896 C 130.553191 6374.747611 100.439101 6318.617048 75.85617 6258.785569 C 51.27324 6199.570909 32.221469 6138.505791 19.930003 6074.973396 C 7.023965 6012.05782 0.878232 5948.525425 0.878232 5883.759391 C 0.878232 5819.610176 7.023965 5756.077781 19.930003 5692.545385 C 32.221469 5629.629809 51.27324 5568.564692 75.85617 5508.733212 C 100.439101 5449.518553 130.553191 5392.771171 166.19844 5339.724705 C 201.843689 5286.061419 242.405524 5236.715869 287.883946 5191.071236 C 333.362367 5145.426602 383.142801 5104.716524 436.610675 5068.941 C 490.078549 5033.165477 546.619289 5002.941327 606.232895 4978.885372 C 665.231929 4954.212597 726.689255 4935.091196 789.990301 4922.754809 C 852.676774 4910.418422 916.592393 4904.250228 981.122585 4904.250228 C 1045.652778 4904.250228 1108.953824 4910.418422 1172.25487 4922.754809 C 1235.555916 4935.091196 1296.398669 4954.212597 1356.012275 4978.885372 C 1415.625882 5002.941327 1472.166622 5033.165477 1525.634495 5068.941 C 1579.102369 5104.716524 1628.26823 5145.426602 1673.746652 5191.071236 C 1719.225073 5236.715869 1759.786908 5286.061419 1796.046731 5339.724705 C 1831.69198 5392.771171 1861.80607 5449.518553 1886.389 5508.733212 C 1910.971931 5568.564692 1929.409129 5629.629809 1942.315167 5692.545385 C 1954.606632 5756.077781 1960.752365 5819.610176 1960.752365 5883.759391 Z M 1960.752365 5883.759391 " transform="matrix(0.00635604,0,0,0.00633289,8.162387,14.086448)"/></g><g clip-rule="nonzero" clip-path="url(#2a166174cb)"><path style="fill-rule:nonzero;fill:#e6e6e6;fill-opacity:1;stroke-width:2.795;stroke-linecap:butt;stroke-linejoin:miter;stroke:#e6e6e6;stroke-opacity:1;stroke-miterlimit:4;" d="M 6276.900384 5590.15337 C 6276.900384 5673.423985 6268.910932 5756.6946 6252.317454 5838.731577 C 6236.338549 5920.768553 6211.755619 6000.338252 6179.797809 6077.440674 C 6147.839999 6154.543095 6108.507311 6227.9446 6062.414316 6297.645189 C 6015.706748 6367.345778 5962.853447 6431.494993 5903.854414 6490.709653 C 5844.855381 6549.924313 5780.325189 6602.970779 5710.87841 6649.232232 C 5641.431631 6695.493684 5567.68284 6734.970124 5490.246609 6767.044732 C 5413.424951 6799.119339 5333.530427 6823.175294 5251.792183 6839.212598 C 5169.439366 6855.866721 5086.471976 6863.885373 5002.890012 6863.885373 C 4919.308048 6863.885373 4836.340658 6855.866721 4754.602414 6839.212598 C 4672.249597 6823.175294 4592.969646 6799.119339 4515.533415 6767.044732 C 4438.097184 6734.970124 4364.962966 6695.493684 4294.901614 6649.232232 C 4225.454836 6602.970779 4161.539216 6549.924313 4101.92561 6490.709653 C 4042.926577 6431.494993 3990.073276 6367.345778 3943.980282 6297.645189 C 3897.272714 6227.9446 3857.940025 6154.543095 3825.982215 6077.440674 C 3794.024406 6000.338252 3770.056048 5920.768553 3753.46257 5838.731577 C 3736.869092 5756.6946 3728.87964 5673.423985 3728.87964 5590.15337 C 3728.87964 5506.265935 3736.869092 5423.612139 3753.46257 5341.575163 C 3770.056048 5259.538186 3794.024406 5179.968487 3825.982215 5102.249246 C 3857.940025 5025.146825 3897.272714 4951.745319 3943.980282 4882.04473 C 3990.073276 4812.344141 4042.926577 4748.194927 4101.92561 4688.980267 C 4161.539216 4629.765607 4225.454836 4577.335961 4294.901614 4530.457688 C 4364.962966 4484.196235 4438.097184 4444.719796 4515.533415 4413.262008 C 4592.969646 4381.1874 4672.249597 4356.514625 4754.602414 4340.477322 C 4836.340658 4324.440018 4919.308048 4315.804547 5002.890012 4315.804547 C 5086.471976 4315.804547 5169.439366 4324.440018 5251.792183 4340.477322 C 5333.530427 4356.514625 5413.424951 4381.1874 5490.246609 4413.262008 C 5567.68284 4444.719796 5641.431631 4484.196235 5710.87841 4530.457688 C 5780.325189 4577.335961 5844.855381 4629.765607 5903.854414 4688.980267 C 5962.853447 4748.194927 6015.706748 4812.344141 6062.414316 4882.04473 C 6108.507311 4951.745319 6147.839999 5025.146825 6179.797809 5102.249246 C 6211.755619 5179.968487 6236.338549 5259.538186 6252.317454 5341.575163 C 6268.910932 5423.612139 6276.900384 5506.265935 6276.900384 5590.15337 Z M 6276.900384 5590.15337 " transform="matrix(0.00635604,0,0,0.00633289,8.162387,14.086448)"/></g><g clip-rule="nonzero" clip-path="url(#dbc335bc88)"><path style="fill-rule:nonzero;fill:#e6e6e6;fill-opacity:1;stroke-width:2.795;stroke-linecap:butt;stroke-linejoin:miter;stroke:#e6e6e6;stroke-opacity:1;stroke-miterlimit:4;" d="M 8289.013244 5590.15337 C 8289.013244 5673.423985 8281.023792 5756.6946 8264.430314 5838.731577 C 8248.451409 5920.768553 8223.868478 6000.338252 8191.910669 6077.440674 C 8159.952859 6154.543095 8120.62017 6227.9446 8074.527176 6297.645189 C 8027.819608 6367.345778 7974.966307 6431.494993 7915.967274 6490.709653 C 7856.968241 6549.924313 7792.438049 6602.970779 7722.99127 6649.232232 C 7653.544491 6695.493684 7579.7957 6734.970124 7502.359469 6767.044732 C 7425.537811 6799.119339 7345.643287 6823.175294 7263.29047 6839.212598 C 7181.552226 6855.866721 7098.584836 6863.885373 7015.002872 6863.885373 C 6931.420908 6863.885373 6848.453518 6855.866721 6766.715274 6839.212598 C 6684.362457 6823.175294 6604.467933 6799.119339 6527.646275 6767.044732 C 6450.210044 6734.970124 6376.461253 6695.493684 6307.014474 6649.232232 C 6237.567696 6602.970779 6173.037503 6549.924313 6114.03847 6490.709653 C 6055.039437 6431.494993 6002.186136 6367.345778 5955.478568 6297.645189 C 5909.385574 6227.9446 5870.052885 6154.543095 5838.095075 6077.440674 C 5806.137266 6000.338252 5781.554335 5920.768553 5765.57543 5838.731577 C 5748.981952 5756.6946 5740.9925 5673.423985 5740.9925 5590.15337 C 5740.9925 5506.265935 5748.981952 5423.612139 5765.57543 5341.575163 C 5781.554335 5259.538186 5806.137266 5179.968487 5838.095075 5102.249246 C 5870.052885 5025.146825 5909.385574 4951.745319 5955.478568 4882.04473 C 6002.186136 4812.344141 6055.039437 4748.194927 6114.03847 4688.980267 C 6173.037503 4629.765607 6237.567696 4577.335961 6307.014474 4530.457688 C 6376.461253 4484.196235 6450.210044 4444.719796 6527.646275 4413.262008 C 6604.467933 4381.1874 6684.362457 4356.514625 6766.715274 4340.477322 C 6848.453518 4324.440018 6931.420908 4315.804547 7015.002872 4315.804547 C 7098.584836 4315.804547 7181.552226 4324.440018 7263.29047 4340.477322 C 7345.643287 4356.514625 7425.537811 4381.1874 7502.359469 4413.262008 C 7579.7957 4444.719796 7653.544491 4484.196235 7722.99127 4530.457688 C 7792.438049 4577.335961 7856.968241 4629.765607 7915.967274 4688.980267 C 7974.966307 4748.194927 8027.819608 4812.344141 8074.527176 4882.04473 C 8120.62017 4951.745319 8159.952859 5025.146825 8191.910669 5102.249246 C 8223.868478 5179.968487 8248.451409 5259.538186 8264.430314 5341.575163 C 8281.023792 5423.612139 8289.013244 5506.265935 8289.013244 5590.15337 Z M 8289.013244 5590.15337 " transform="matrix(0.00635604,0,0,0.00633289,8.162387,14.086448)"/></g><g clip-rule="nonzero" clip-path="url(#34881fcc17)"><path style="fill-rule:evenodd;fill:#e6e6e6;fill-opacity:1;stroke-width:2.795;stroke-linecap:butt;stroke-linejoin:miter;stroke:#e6e6e6;stroke-opacity:1;stroke-miterlimit:4;" d="M 874.186838 6010.207362 L 7058.023 6010.207362 L 7058.023 6868.203109 L 874.186838 6868.203109 Z M 874.186838 6010.207362 " transform="matrix(0.00635604,0,0,0.00633289,8.162387,14.086448)"/></g><path style="fill-rule:evenodd;fill:#ffc100;fill-opacity:1;stroke-width:2.795;stroke-linecap:butt;stroke-linejoin:miter;stroke:#ffc100;stroke-opacity:1;stroke-miterlimit:4;" d="M 158.011122 0.375821 L 164.355244 0.153229 C 207.695419 -0.172357 244.862638 15.134934 275.856902 46.0751 C 306.851166 77.015267 322.030861 114.844133 321.623307 157.880637 L 322.304919 1827.118268 C 321.897365 1870.154773 306.425127 1907.864041 275.581189 1939.181291 C 244.964571 1968.817479 207.605346 1984.947037 164.265171 1985.272623 L 157.92105 1985.495215 C 114.273857 1984.756018 77.106638 1969.448727 46.112374 1938.508561 C 15.11811 1907.568394 0.245432 1870.804311 -0.188368 1827.319302 L -0.0286254 158.530176 C 0.0719116 114.428888 15.544149 76.71962 46.160767 47.083432 C 77.004705 15.766182 114.36393 -0.363376 158.011122 0.375821 Z M 158.011122 0.375821 " transform="matrix(-0.00317523,0.00548605,-0.00275305,-0.00158183,29.838694,27.641551)"/><path style="fill-rule:evenodd;fill:#ffc100;fill-opacity:1;stroke-width:2.795;stroke-linecap:butt;stroke-linejoin:miter;stroke:#ffc100;stroke-opacity:1;stroke-miterlimit:4;" d="M 158.037589 0.749414 L 163.837797 0.338144 C 207.939519 0.0867719 244.659862 15.521572 275.680669 45.739009 C 306.392423 77.024069 321.744783 114.757463 322.046801 157.871567 L 321.815388 1826.84043 C 321.808353 1871.022157 306.873119 1907.896707 275.859711 1938.983468 C 244.846303 1970.070229 207.709199 1985.513412 163.916531 1984.697161 L 158.116322 1985.10843 C 114.323654 1984.29218 77.294258 1969.925003 46.582504 1938.639943 C 15.561697 1908.422506 0.209337 1870.689112 -0.0926817 1827.575008 L 0.138732 158.606145 C 0.145766 114.424417 15.390054 76.482245 46.094409 46.463107 C 77.107817 15.376346 114.244921 -0.0668373 158.037589 0.749414 Z M 158.037589 0.749414 " transform="matrix(-0.00550064,0.00317303,-0.00159231,-0.00274031,36.358783,22.012314)"/><g clip-rule="nonzero" clip-path="url(#cd7aaed207)"><path style="fill-rule:evenodd;fill:#ffc100;fill-opacity:1;stroke-width:2.795;stroke-linecap:butt;stroke-linejoin:miter;stroke:#ffc100;stroke-opacity:1;stroke-miterlimit:4;" d="M 158.107604 -0.429509 L 164.253315 -0.406155 C 207.887859 -0.240344 244.746886 15.937024 275.447311 45.661016 C 306.761136 76.620978 322.089081 114.922025 322.048063 158.099226 L 322.306124 1827.21344 C 322.265106 1870.39064 306.865671 1907.341285 275.492077 1939.296673 C 244.734226 1970.020762 207.8459 1984.684251 164.211356 1984.51844 L 158.065646 1984.495086 C 114.42993 1985.562909 76.956331 1969.383206 46.257078 1938.42558 C 15.557825 1907.467954 0.228707 1870.400541 0.269725 1827.22334 L 0.0116643 158.109126 C 0.0526827 114.931926 15.453289 76.747646 46.21114 46.023557 C 76.968991 15.299468 114.47306 -0.59532 158.107604 -0.429509 Z M 158.107604 -0.429509 " transform="matrix(-0.00635604,0.0000120325,-0.00000603824,-0.00316645,44.829154,20.37955)"/></g><path style="fill-rule:evenodd;fill:#ffc100;fill-opacity:1;stroke-width:2.795;stroke-linecap:butt;stroke-linejoin:miter;stroke:#ffc100;stroke-opacity:1;stroke-miterlimit:4;" d="M 158.373175 0.229328 L 163.86555 -0.385203 C 207.966554 0.202035 244.767036 14.85799 275.721089 46.180775 C 306.675142 77.50356 322.073125 113.879852 321.99604 158.061397 L 321.796017 1826.71583 C 322.251969 1870.285573 306.82785 1907.901845 276.056697 1938.952846 C 244.978525 1968.933875 207.695956 1984.700742 163.901971 1985.183475 L 158.102576 1984.728035 C 114.308591 1985.210768 77.201091 1969.484842 46.247038 1938.162057 C 15.600004 1907.909244 -0.104999 1870.46298 0.279105 1827.351406 L 0.17211 157.627002 C -0.283843 114.057259 15.447295 77.510958 46.218448 46.459957 C 76.989601 15.408957 114.27217 -0.35791 158.373175 0.229328 Z M 158.373175 0.229328 " transform="matrix(-0.00551272,-0.00315213,0.00158183,-0.00274632,52.985985,23.179531)"/><path style="fill-rule:evenodd;fill:#ffc100;fill-opacity:1;stroke-width:2.795;stroke-linecap:butt;stroke-linejoin:miter;stroke:#ffc100;stroke-opacity:1;stroke-miterlimit:4;" d="M 157.789293 -0.222749 L 164.132932 0.0481933 C 207.781137 -0.358353 244.576092 15.435574 275.669046 45.92544 C 306.452955 77.477749 322.162153 114.242478 322.178551 158.344512 L 321.905208 1827.490646 C 322.230651 1870.530238 306.445766 1907.623047 275.925912 1938.947333 C 244.872901 1969.651268 207.676816 1984.675287 164.028612 1985.081833 L 158.218129 1985.431242 C 114.036768 1985.217437 77.241813 1969.42351 46.148858 1938.933644 C 15.36495 1907.381335 -0.344249 1870.616606 0.172511 1827.134923 L -0.0873033 157.368438 C 0.12041 114.949197 15.372138 77.236037 46.425149 46.532102 C 76.945003 15.207816 114.141088 0.183797 157.789293 -0.222749 Z M 157.789293 -0.222749 " transform="matrix(-0.0031962,-0.00547396,0.00274695,-0.00159228,58.649469,29.664159)"/><g clip-rule="nonzero" clip-path="url(#60dc63513b)"><path style=" stroke:none;fill-rule:evenodd;fill:#ffc100;fill-opacity:1;" d="M 60.300781 37.097656 L 60.300781 37.0625 C 60.300781 36.785156 60.347656 36.550781 60.445312 36.351562 C 60.542969 36.15625 60.660156 36.058594 60.800781 36.058594 L 66.105469 36.039062 C 66.242188 36.039062 66.363281 36.132812 66.460938 36.328125 C 66.558594 36.523438 66.609375 36.761719 66.609375 37.035156 L 66.609375 37.074219 C 66.613281 37.351562 66.5625 37.585938 66.464844 37.78125 C 66.367188 37.976562 66.25 38.078125 66.113281 38.078125 L 60.808594 38.097656 C 60.667969 38.097656 60.550781 38 60.453125 37.804688 C 60.351562 37.613281 60.304688 37.375 60.300781 37.097656 Z M 60.300781 37.097656 "/></g><g clip-rule="nonzero" clip-path="url(#7e10ccc7e9)"><path style="fill:none;stroke-width:2.795;stroke-linecap:butt;stroke-linejoin:miter;stroke:#ffc100;stroke-opacity:1;stroke-miterlimit:4;" d="M 158.308303 -0.368554 L 163.859589 -0.324144 C 207.653063 0.0262041 244.632135 15.071795 276.027963 46.051624 C 306.806982 77.026519 322.153472 114.023686 322.064974 158.272252 L 321.810713 1827.451173 C 321.724675 1870.470612 306.845041 1908.455117 275.943109 1938.936564 C 245.041178 1969.418011 207.383841 1985.095657 164.207175 1984.750243 L 158.03908 1984.700899 C 114.243147 1985.579678 77.266535 1969.30496 46.487516 1938.330065 C 15.708497 1907.355171 -0.254803 1870.353069 -0.168764 1827.33363 L 0.0854973 158.154709 C 0.173994 113.906143 15.66798 77.1557 46.569911 46.674253 C 76.857491 14.958744 114.51237 0.510225 158.308303 -0.368554 Z M 158.308303 -0.368554 " transform="matrix(-0.0000254241,-0.00633289,0.00317802,-0.0000126658,60.305977,38.100201)"/></g></g></svg>